<mxfile host="app.diagrams.net" modified="2021-01-31T02:31:29.815Z" agent="5.0 (Windows NT 10.0; Win64; x64) AppleWebKit/537.36 (KHTML, like Gecko) Chrome/88.0.4324.104 Safari/537.36" etag="W-YCadbgH4-vCJ98BupS" version="14.2.9" type="github">
  <diagram id="at-fI2MFiypya5svLp6i" name="Page-1">
    <mxGraphModel dx="241" dy="136" grid="1" gridSize="10" guides="1" tooltips="1" connect="1" arrows="1" fold="1" page="1" pageScale="1" pageWidth="827" pageHeight="1169" math="0" shadow="0">
      <root>
        <mxCell id="0" />
        <mxCell id="1" parent="0" />
        <mxCell id="dLeIZHlGn280MPrsd9h0-1" value="" style="ellipse;whiteSpace=wrap;html=1;aspect=fixed;strokeColor=#007FFF;" parent="1" vertex="1">
          <mxGeometry x="280" y="120" width="80" height="80" as="geometry" />
        </mxCell>
        <mxCell id="dLeIZHlGn280MPrsd9h0-3" value="" style="ellipse;whiteSpace=wrap;html=1;aspect=fixed;strokeColor=#FF00FF;" parent="1" vertex="1">
          <mxGeometry x="290" y="130" width="60" height="60" as="geometry" />
        </mxCell>
        <mxCell id="dLeIZHlGn280MPrsd9h0-4" value="" style="ellipse;whiteSpace=wrap;html=1;aspect=fixed;" parent="1" vertex="1">
          <mxGeometry x="310" y="150" width="20" height="20" as="geometry" />
        </mxCell>
        <mxCell id="dLeIZHlGn280MPrsd9h0-19" value="" style="triangle;whiteSpace=wrap;html=1;fillColor=#FF0000;" parent="1" vertex="1">
          <mxGeometry x="280" y="155" width="10" height="10" as="geometry" />
        </mxCell>
        <mxCell id="dLeIZHlGn280MPrsd9h0-20" value="" style="triangle;whiteSpace=wrap;html=1;rotation=-180;fillColor=#FF0000;" parent="1" vertex="1">
          <mxGeometry x="350" y="155" width="10" height="10" as="geometry" />
        </mxCell>
        <mxCell id="dLeIZHlGn280MPrsd9h0-24" value="" style="ellipse;whiteSpace=wrap;html=1;aspect=fixed;fillColor=#00FF00;" parent="1" vertex="1">
          <mxGeometry x="340" y="155" width="10" height="10" as="geometry" />
        </mxCell>
        <mxCell id="dLeIZHlGn280MPrsd9h0-26" value="" style="ellipse;whiteSpace=wrap;html=1;aspect=fixed;fillColor=#00FF00;" parent="1" vertex="1">
          <mxGeometry x="290" y="155" width="10" height="10" as="geometry" />
        </mxCell>
        <mxCell id="6EiWs3IudrYdr3ld9Edf-1" value="" style="triangle;whiteSpace=wrap;html=1;rotation=-180;fillColor=#FFA500;" vertex="1" parent="1">
          <mxGeometry x="300" y="155" width="10" height="10" as="geometry" />
        </mxCell>
        <mxCell id="6EiWs3IudrYdr3ld9Edf-2" value="" style="triangle;whiteSpace=wrap;html=1;fillColor=#FFA500;" vertex="1" parent="1">
          <mxGeometry x="330" y="155" width="10" height="10" as="geometry" />
        </mxCell>
        <mxCell id="6EiWs3IudrYdr3ld9Edf-4" value="&lt;font style=&quot;font-size: 6px&quot;&gt;Centre&lt;/font&gt;" style="text;html=1;strokeColor=none;fillColor=none;align=center;verticalAlign=middle;whiteSpace=wrap;rounded=0;" vertex="1" parent="1">
          <mxGeometry x="308" y="155" width="24" height="10" as="geometry" />
        </mxCell>
        <mxCell id="6EiWs3IudrYdr3ld9Edf-5" value="" style="ellipse;whiteSpace=wrap;html=1;aspect=fixed;fillColor=#FFFFFF;" vertex="1" parent="1">
          <mxGeometry x="440" y="120" width="80" height="80" as="geometry" />
        </mxCell>
        <mxCell id="6EiWs3IudrYdr3ld9Edf-6" value="" style="ellipse;whiteSpace=wrap;html=1;aspect=fixed;fillColor=#FFFFFF;" vertex="1" parent="1">
          <mxGeometry x="447.5" y="127.5" width="65" height="65" as="geometry" />
        </mxCell>
        <mxCell id="6EiWs3IudrYdr3ld9Edf-7" value="" style="ellipse;whiteSpace=wrap;html=1;aspect=fixed;fillColor=#FFFFFF;" vertex="1" parent="1">
          <mxGeometry x="456.88" y="136.88" width="46.25" height="46.25" as="geometry" />
        </mxCell>
      </root>
    </mxGraphModel>
  </diagram>
</mxfile>
